<mxfile host="Electron" agent="Mozilla/5.0 (Windows NT 10.0; Win64; x64) AppleWebKit/537.36 (KHTML, like Gecko) draw.io/28.1.2 Chrome/138.0.7204.243 Electron/37.4.0 Safari/537.36" version="28.1.2">
  <diagram name="PÃ¡gina-1" id="DDfKfv0Q1Xzftm9KrnZW">
    <mxGraphModel dx="1106" dy="1830" grid="1" gridSize="10" guides="1" tooltips="1" connect="1" arrows="1" fold="1" page="1" pageScale="1" pageWidth="827" pageHeight="1169" math="0" shadow="0">
      <root>
        <mxCell id="0" />
        <mxCell id="1" parent="0" />
        <mxCell id="eGZtYeRQkaMawZDchzaI-7" value="" style="edgeStyle=orthogonalEdgeStyle;rounded=0;orthogonalLoop=1;jettySize=auto;html=1;" edge="1" parent="1" source="eGZtYeRQkaMawZDchzaI-1" target="eGZtYeRQkaMawZDchzaI-3">
          <mxGeometry relative="1" as="geometry" />
        </mxCell>
        <mxCell id="eGZtYeRQkaMawZDchzaI-1" value="&lt;font style=&quot;font-size: 24px; color: rgb(255, 255, 255);&quot;&gt;Minoristes&lt;/font&gt;" style="rounded=0;whiteSpace=wrap;html=1;fillColor=#007FFF;" vertex="1" parent="1">
          <mxGeometry x="130" y="302" width="120" height="60" as="geometry" />
        </mxCell>
        <mxCell id="eGZtYeRQkaMawZDchzaI-2" value="&lt;u&gt;&lt;font style=&quot;font-size: 18px; color: rgb(0, 0, 0);&quot;&gt;CIF&lt;/font&gt;&lt;/u&gt;" style="ellipse;whiteSpace=wrap;html=1;fillColor=#FFFF33;" vertex="1" parent="1">
          <mxGeometry x="70" y="402" width="70" height="50" as="geometry" />
        </mxCell>
        <mxCell id="eGZtYeRQkaMawZDchzaI-3" value="&lt;font style=&quot;font-size: 18px;&quot;&gt;NOM&lt;/font&gt;" style="ellipse;whiteSpace=wrap;html=1;fillColor=#FFFF33;" vertex="1" parent="1">
          <mxGeometry x="220" y="402" width="70" height="50" as="geometry" />
        </mxCell>
        <mxCell id="eGZtYeRQkaMawZDchzaI-9" value="" style="edgeStyle=orthogonalEdgeStyle;rounded=0;orthogonalLoop=1;jettySize=auto;html=1;entryX=0.5;entryY=0;entryDx=0;entryDy=0;" edge="1" parent="1" target="eGZtYeRQkaMawZDchzaI-2">
          <mxGeometry relative="1" as="geometry">
            <mxPoint x="190" y="382" as="sourcePoint" />
            <mxPoint x="185" y="412" as="targetPoint" />
          </mxGeometry>
        </mxCell>
        <mxCell id="eGZtYeRQkaMawZDchzaI-13" value="" style="edgeStyle=orthogonalEdgeStyle;rounded=0;orthogonalLoop=1;jettySize=auto;html=1;entryX=0.5;entryY=0;entryDx=0;entryDy=0;" edge="1" parent="1" source="eGZtYeRQkaMawZDchzaI-14" target="eGZtYeRQkaMawZDchzaI-35">
          <mxGeometry relative="1" as="geometry" />
        </mxCell>
        <mxCell id="eGZtYeRQkaMawZDchzaI-36" value="" style="edgeStyle=orthogonalEdgeStyle;rounded=0;orthogonalLoop=1;jettySize=auto;html=1;" edge="1" parent="1" source="eGZtYeRQkaMawZDchzaI-14" target="eGZtYeRQkaMawZDchzaI-35">
          <mxGeometry relative="1" as="geometry" />
        </mxCell>
        <mxCell id="eGZtYeRQkaMawZDchzaI-14" value="&lt;font color=&quot;#ffffff&quot;&gt;&lt;span style=&quot;font-size: 24px;&quot;&gt;Comanda&lt;/span&gt;&lt;/font&gt;" style="rounded=0;whiteSpace=wrap;html=1;fillColor=#007FFF;" vertex="1" parent="1">
          <mxGeometry x="474" y="302" width="120" height="60" as="geometry" />
        </mxCell>
        <mxCell id="eGZtYeRQkaMawZDchzaI-15" value="&lt;u&gt;&lt;font style=&quot;font-size: 18px; color: rgb(0, 0, 0);&quot;&gt;ID&lt;/font&gt;&lt;/u&gt;" style="ellipse;whiteSpace=wrap;html=1;fillColor=#FFFF33;" vertex="1" parent="1">
          <mxGeometry x="414" y="402" width="70" height="50" as="geometry" />
        </mxCell>
        <mxCell id="eGZtYeRQkaMawZDchzaI-16" value="&lt;span style=&quot;font-size: 18px;&quot;&gt;PREU&lt;/span&gt;" style="ellipse;whiteSpace=wrap;html=1;fillColor=#FFFF33;" vertex="1" parent="1">
          <mxGeometry x="574" y="402" width="70" height="50" as="geometry" />
        </mxCell>
        <mxCell id="eGZtYeRQkaMawZDchzaI-17" value="" style="edgeStyle=orthogonalEdgeStyle;rounded=0;orthogonalLoop=1;jettySize=auto;html=1;entryX=0.5;entryY=0;entryDx=0;entryDy=0;" edge="1" parent="1" target="eGZtYeRQkaMawZDchzaI-15">
          <mxGeometry relative="1" as="geometry">
            <mxPoint x="534" y="382" as="sourcePoint" />
            <mxPoint x="529" y="412" as="targetPoint" />
          </mxGeometry>
        </mxCell>
        <mxCell id="eGZtYeRQkaMawZDchzaI-18" value="" style="endArrow=none;html=1;rounded=0;exitX=1;exitY=0.5;exitDx=0;exitDy=0;entryX=0;entryY=0.5;entryDx=0;entryDy=0;" edge="1" parent="1" source="eGZtYeRQkaMawZDchzaI-19" target="eGZtYeRQkaMawZDchzaI-14">
          <mxGeometry width="50" height="50" relative="1" as="geometry">
            <mxPoint x="390" y="552" as="sourcePoint" />
            <mxPoint x="440" y="502" as="targetPoint" />
          </mxGeometry>
        </mxCell>
        <mxCell id="eGZtYeRQkaMawZDchzaI-20" value="" style="endArrow=none;html=1;rounded=0;exitX=1;exitY=0.5;exitDx=0;exitDy=0;entryX=0;entryY=0.5;entryDx=0;entryDy=0;" edge="1" parent="1" source="eGZtYeRQkaMawZDchzaI-1" target="eGZtYeRQkaMawZDchzaI-19">
          <mxGeometry width="50" height="50" relative="1" as="geometry">
            <mxPoint x="250" y="332" as="sourcePoint" />
            <mxPoint x="474" y="332" as="targetPoint" />
          </mxGeometry>
        </mxCell>
        <mxCell id="eGZtYeRQkaMawZDchzaI-19" value="&lt;font style=&quot;font-size: 16px; color: rgb(255, 255, 255);&quot;&gt;FAN&lt;/font&gt;" style="rhombus;whiteSpace=wrap;html=1;fillColor=#009900;" vertex="1" parent="1">
          <mxGeometry x="310" y="292" width="110" height="80" as="geometry" />
        </mxCell>
        <mxCell id="eGZtYeRQkaMawZDchzaI-21" value="" style="edgeStyle=orthogonalEdgeStyle;rounded=0;orthogonalLoop=1;jettySize=auto;html=1;" edge="1" parent="1" source="eGZtYeRQkaMawZDchzaI-22" target="eGZtYeRQkaMawZDchzaI-24">
          <mxGeometry relative="1" as="geometry" />
        </mxCell>
        <mxCell id="eGZtYeRQkaMawZDchzaI-22" value="&lt;font color=&quot;#ffffff&quot;&gt;&lt;span style=&quot;font-size: 24px;&quot;&gt;Repartidor&lt;/span&gt;&lt;/font&gt;" style="rounded=0;whiteSpace=wrap;html=1;fillColor=#007FFF;" vertex="1" parent="1">
          <mxGeometry x="760" y="302" width="120" height="60" as="geometry" />
        </mxCell>
        <mxCell id="eGZtYeRQkaMawZDchzaI-23" value="&lt;u&gt;&lt;font style=&quot;font-size: 18px; color: rgb(0, 0, 0);&quot;&gt;NUSS&lt;/font&gt;&lt;/u&gt;" style="ellipse;whiteSpace=wrap;html=1;fillColor=#FFFF33;" vertex="1" parent="1">
          <mxGeometry x="695" y="402" width="70" height="50" as="geometry" />
        </mxCell>
        <mxCell id="eGZtYeRQkaMawZDchzaI-24" value="&lt;font style=&quot;font-size: 18px;&quot;&gt;NOM&lt;/font&gt;" style="ellipse;whiteSpace=wrap;html=1;fillColor=#FFFF33;" vertex="1" parent="1">
          <mxGeometry x="860" y="402" width="70" height="50" as="geometry" />
        </mxCell>
        <mxCell id="eGZtYeRQkaMawZDchzaI-25" value="" style="edgeStyle=orthogonalEdgeStyle;rounded=0;orthogonalLoop=1;jettySize=auto;html=1;entryX=0.5;entryY=0;entryDx=0;entryDy=0;" edge="1" parent="1" target="eGZtYeRQkaMawZDchzaI-23">
          <mxGeometry relative="1" as="geometry">
            <mxPoint x="820" y="382" as="sourcePoint" />
            <mxPoint x="815" y="412" as="targetPoint" />
          </mxGeometry>
        </mxCell>
        <mxCell id="eGZtYeRQkaMawZDchzaI-29" value="(N,M)" style="text;html=1;align=center;verticalAlign=middle;resizable=0;points=[];autosize=1;strokeColor=none;fillColor=none;" vertex="1" parent="1">
          <mxGeometry x="335" y="270" width="50" height="30" as="geometry" />
        </mxCell>
        <mxCell id="eGZtYeRQkaMawZDchzaI-35" value="&lt;span style=&quot;font-size: 18px;&quot;&gt;DATA&lt;/span&gt;" style="ellipse;whiteSpace=wrap;html=1;fillColor=#FFFF33;" vertex="1" parent="1">
          <mxGeometry x="499" y="402" width="70" height="50" as="geometry" />
        </mxCell>
        <mxCell id="eGZtYeRQkaMawZDchzaI-37" value="" style="endArrow=classic;html=1;rounded=0;entryX=0.5;entryY=0;entryDx=0;entryDy=0;" edge="1" parent="1" target="eGZtYeRQkaMawZDchzaI-16">
          <mxGeometry width="50" height="50" relative="1" as="geometry">
            <mxPoint x="530" y="382" as="sourcePoint" />
            <mxPoint x="480" y="502" as="targetPoint" />
            <Array as="points">
              <mxPoint x="580" y="382" />
              <mxPoint x="610" y="382" />
            </Array>
          </mxGeometry>
        </mxCell>
        <mxCell id="eGZtYeRQkaMawZDchzaI-40" value="" style="edgeStyle=orthogonalEdgeStyle;rounded=0;orthogonalLoop=1;jettySize=auto;html=1;" edge="1" parent="1" source="eGZtYeRQkaMawZDchzaI-41" target="eGZtYeRQkaMawZDchzaI-43">
          <mxGeometry relative="1" as="geometry" />
        </mxCell>
        <mxCell id="eGZtYeRQkaMawZDchzaI-41" value="&lt;font color=&quot;#ffffff&quot;&gt;&lt;span style=&quot;font-size: 24px;&quot;&gt;Entrega&lt;/span&gt;&lt;/font&gt;" style="rounded=0;whiteSpace=wrap;html=1;fillColor=#007FFF;" vertex="1" parent="1">
          <mxGeometry x="612.5" y="28.889999999999986" width="120" height="60" as="geometry" />
        </mxCell>
        <mxCell id="eGZtYeRQkaMawZDchzaI-42" value="&lt;span style=&quot;font-size: 18px;&quot;&gt;&lt;u&gt;ID&lt;/u&gt;&lt;/span&gt;" style="ellipse;whiteSpace=wrap;html=1;fillColor=#FFFF33;" vertex="1" parent="1">
          <mxGeometry x="560" y="128.89" width="70" height="50" as="geometry" />
        </mxCell>
        <mxCell id="eGZtYeRQkaMawZDchzaI-43" value="&lt;span style=&quot;font-size: 18px;&quot;&gt;DATA E&lt;/span&gt;" style="ellipse;whiteSpace=wrap;html=1;fillColor=#FFFF33;" vertex="1" parent="1">
          <mxGeometry x="712.5" y="128.89" width="70" height="50" as="geometry" />
        </mxCell>
        <mxCell id="eGZtYeRQkaMawZDchzaI-44" value="" style="edgeStyle=orthogonalEdgeStyle;rounded=0;orthogonalLoop=1;jettySize=auto;html=1;entryX=0.5;entryY=0;entryDx=0;entryDy=0;" edge="1" parent="1">
          <mxGeometry relative="1" as="geometry">
            <mxPoint x="682.5" y="108.88999999999999" as="sourcePoint" />
            <mxPoint x="597.5" y="128.88999999999987" as="targetPoint" />
          </mxGeometry>
        </mxCell>
        <mxCell id="eGZtYeRQkaMawZDchzaI-45" value="" style="endArrow=classic;html=1;rounded=0;exitX=1;exitY=0;exitDx=0;exitDy=0;entryX=0;entryY=0.5;entryDx=0;entryDy=0;" edge="1" parent="1" source="eGZtYeRQkaMawZDchzaI-41" target="eGZtYeRQkaMawZDchzaI-48">
          <mxGeometry width="50" height="50" relative="1" as="geometry">
            <mxPoint x="568.5" y="68.88999999999999" as="sourcePoint" />
            <mxPoint x="567.3908729652601" y="-30.0008729652601" as="targetPoint" />
            <Array as="points" />
          </mxGeometry>
        </mxCell>
        <mxCell id="eGZtYeRQkaMawZDchzaI-48" value="&lt;font style=&quot;font-size: 16px; color: rgb(255, 255, 255);&quot;&gt;REPROGRA&lt;/font&gt;" style="rhombus;whiteSpace=wrap;html=1;fillColor=#009900;rotation=0;direction=west;" vertex="1" parent="1">
          <mxGeometry x="612.5" y="-100" width="120" height="80" as="geometry" />
        </mxCell>
        <mxCell id="eGZtYeRQkaMawZDchzaI-49" value="" style="endArrow=classic;html=1;rounded=0;exitX=0;exitY=0;exitDx=0;exitDy=0;entryX=1;entryY=0.5;entryDx=0;entryDy=0;" edge="1" parent="1" source="eGZtYeRQkaMawZDchzaI-41" target="eGZtYeRQkaMawZDchzaI-48">
          <mxGeometry width="50" height="50" relative="1" as="geometry">
            <mxPoint x="489.6091270347399" y="47.78087296526007" as="sourcePoint" />
            <mxPoint x="618.5" y="18.889999999999986" as="targetPoint" />
          </mxGeometry>
        </mxCell>
        <mxCell id="eGZtYeRQkaMawZDchzaI-54" value="" style="endArrow=none;html=1;rounded=0;exitX=0.5;exitY=0;exitDx=0;exitDy=0;entryX=0;entryY=0.5;entryDx=0;entryDy=0;" edge="1" parent="1" target="eGZtYeRQkaMawZDchzaI-41">
          <mxGeometry width="50" height="50" relative="1" as="geometry">
            <mxPoint x="533.5" y="302" as="sourcePoint" />
            <mxPoint x="533.5" y="60" as="targetPoint" />
            <Array as="points">
              <mxPoint x="530" y="60" />
            </Array>
          </mxGeometry>
        </mxCell>
        <mxCell id="eGZtYeRQkaMawZDchzaI-55" value="" style="endArrow=none;html=1;rounded=0;entryX=1;entryY=0.5;entryDx=0;entryDy=0;exitX=0.5;exitY=0;exitDx=0;exitDy=0;" edge="1" parent="1" source="eGZtYeRQkaMawZDchzaI-22" target="eGZtYeRQkaMawZDchzaI-41">
          <mxGeometry width="50" height="50" relative="1" as="geometry">
            <mxPoint x="840" y="150" as="sourcePoint" />
            <mxPoint x="890" y="100" as="targetPoint" />
            <Array as="points">
              <mxPoint x="820" y="60" />
            </Array>
          </mxGeometry>
        </mxCell>
        <mxCell id="eGZtYeRQkaMawZDchzaI-56" value="&lt;font style=&quot;color: rgb(255, 255, 255);&quot;&gt;INTENTA&lt;/font&gt;" style="rhombus;whiteSpace=wrap;html=1;fillColor=#009900;" vertex="1" parent="1">
          <mxGeometry x="494" y="140" width="80" height="120" as="geometry" />
        </mxCell>
        <mxCell id="eGZtYeRQkaMawZDchzaI-59" value="&lt;font style=&quot;color: rgb(255, 255, 255);&quot;&gt;ASIGNA&lt;/font&gt;" style="rhombus;whiteSpace=wrap;html=1;fillColor=#009900;" vertex="1" parent="1">
          <mxGeometry x="782.5" y="128.89" width="80" height="120" as="geometry" />
        </mxCell>
        <mxCell id="eGZtYeRQkaMawZDchzaI-60" value="(0,N)" style="text;html=1;align=center;verticalAlign=middle;resizable=0;points=[];autosize=1;strokeColor=none;fillColor=none;rotation=-60;" vertex="1" parent="1">
          <mxGeometry x="474" y="148.89" width="50" height="30" as="geometry" />
        </mxCell>
        <mxCell id="eGZtYeRQkaMawZDchzaI-61" value="(1,N)" style="text;html=1;align=center;verticalAlign=middle;resizable=0;points=[];autosize=1;strokeColor=none;fillColor=none;rotation=60;" vertex="1" parent="1">
          <mxGeometry x="830" y="128.89" width="50" height="30" as="geometry" />
        </mxCell>
        <mxCell id="eGZtYeRQkaMawZDchzaI-62" value="(0,N)" style="text;html=1;align=center;verticalAlign=middle;resizable=0;points=[];autosize=1;strokeColor=none;fillColor=none;" vertex="1" parent="1">
          <mxGeometry x="645" y="-122" width="50" height="30" as="geometry" />
        </mxCell>
      </root>
    </mxGraphModel>
  </diagram>
</mxfile>
